<?xml version="1.0" encoding="UTF-8" standalone="no"?>
<!-- Generator: Adobe Illustrator 18.1.1, SVG Export Plug-In . SVG Version: 6.00 Build 0)  -->

<svg
   version="1.1"
   id="Layer_1"
   x="0px"
   y="0px"
   width="24"
   height="21"
   viewBox="0 0 24 21"
   enable-background="new 0 0 400 300"
   xmlSpace="preserve"
   xmlnsSvg="http://www.w3.org/2000/svg"
   xmlns="http://www.w3.org/2000/svg">
  <defs
     id="defs39" />
  <path
     style="fill:#545454;fill-opacity:1"
     d="M 17.9,0 C 15.8,0 13.6,1.1 12,3.5 10.4,1.1 8.2,0.1 6.1,0.1 2.9,0.1 0,2.5 0,6.2 0,12.4 12,21 12,21 12,21 24,12.4 24,6.2 24,2.5 21.1,0 17.9,0 Z"
     id="path2" />
  <path
     style="fill:#ff5555"
     d="M 12,18.5 C 10.9,17.6 9.1,16.2 7.4,14.5 2.7,9.9 2,7.3 2,6.2 2,3.5 4.1,2.1 6.1,2.1 7.7,2.1 9.3,3 10.4,4.7 l 1.7,2.5 1.6,-2.5 c 1.1,-1.7 2.6,-2.6 4.2,-2.6 2,0 4.1,1.5 4.1,4.2 0,3.3 -5.7,8.9 -10,12.2 z"
     id="path3" />
</svg>
